<svg width="92" height="16" viewBox="0 0 92 16" fill="none" xmlns="http://www.w3.org/2000/svg">
<path d="M0.881847 5.82019C1.00725 4.80221 1.39084 3.82849 2.03261 2.89903C2.67438 1.96219 3.4895 1.24666 4.47797 0.75242C5.47382 0.250807 6.45861 0 7.43233 0C8.41343 0 9.33182 0.250807 10.1875 0.75242C11.0506 1.24666 11.685 1.95851 12.0907 2.88797C12.1718 3.07238 12.2419 3.2568 12.3009 3.44122C12.3673 3.61088 12.4079 3.78423 12.4226 3.96127C12.43 3.96865 12.4337 3.97603 12.4337 3.9834C12.4632 4.18257 12.4632 4.38912 12.4337 4.60304C12.3747 5.03827 12.2087 5.45136 11.9358 5.84232C11.6702 6.23329 11.3272 6.53942 10.9067 6.76072C10.4863 6.98202 10.0584 7.09267 9.6232 7.09267C9.19536 7.09267 8.79333 6.98202 8.41712 6.76072C8.04828 6.53942 7.78272 6.23329 7.62044 5.84232C7.5688 5.73167 7.52454 5.60258 7.48766 5.45505C7.48028 5.43292 7.4729 5.41079 7.46553 5.38866C7.40651 5.25588 7.3143 5.15629 7.1889 5.0899C7.0635 5.01614 6.93072 4.97925 6.79056 4.97925C6.6504 4.97925 6.51025 5.01614 6.37009 5.0899C6.22993 5.15629 6.11191 5.25588 6.01601 5.38866C5.92749 5.52144 5.87585 5.66528 5.8611 5.82019L5.28572 10.1909C5.27097 10.3384 5.28941 10.4786 5.34104 10.6113C5.40006 10.7441 5.49227 10.8437 5.61767 10.9101C5.66193 10.9396 5.70988 10.9654 5.76151 10.9876C5.76889 10.8917 5.77627 10.7958 5.78364 10.6999C5.84266 10.2646 6.00494 9.85154 6.2705 9.46058C6.54344 9.06224 6.89015 8.75611 7.31062 8.54219C7.73846 8.32089 8.16631 8.21024 8.59416 8.21024H9.68959C10.1248 8.21024 10.5268 8.32089 10.8957 8.54219C11.2645 8.75611 11.5301 9.06224 11.6924 9.46058C11.862 9.85154 11.9173 10.2646 11.8583 10.6999L11.4932 13.5104C11.4416 13.9456 11.2756 14.3624 10.9953 14.7607C10.7149 15.1591 10.3646 15.4652 9.94409 15.6791C9.52362 15.893 9.10315 16 8.68268 16C8.26221 16 7.87124 15.893 7.50979 15.6791C7.48028 15.6644 7.45077 15.6496 7.42127 15.6349C6.72786 15.8783 6.03814 16 5.35211 16C4.37839 16 3.45999 15.7529 2.59692 15.2586C1.74123 14.757 1.11421 14.0378 0.715871 13.101C0.324908 12.1936 0.184751 11.2457 0.295401 10.2573L0.881847 5.82019Z" fill="#5A42EE"/>
<path d="M19.7919 5.80913C19.8141 5.6616 19.7956 5.52513 19.7366 5.39972C19.6776 5.26694 19.5891 5.16367 19.4711 5.0899C19.353 5.01614 19.2203 4.97925 19.0727 4.97925C18.9252 4.97925 18.7777 5.01614 18.6301 5.0899C18.49 5.16367 18.3756 5.26694 18.2871 5.39972C18.206 5.5325 18.1543 5.66897 18.1322 5.80913L17.9109 7.5242C17.9035 7.55371 17.9072 7.58322 17.922 7.61272C17.9367 7.63485 17.9552 7.6533 17.9773 7.66805C17.9994 7.6828 18.0252 7.69018 18.0547 7.69018H19.3825C19.412 7.69018 19.4416 7.6828 19.4711 7.66805C19.5006 7.6533 19.5227 7.63485 19.5374 7.61272C19.5522 7.58322 19.5633 7.55371 19.5706 7.5242L19.7919 5.80913ZM18.7961 13.5104L19.0285 11.7289C19.0285 11.6994 19.0211 11.6736 19.0063 11.6515C18.999 11.6219 18.9842 11.5998 18.9621 11.5851C18.9399 11.5703 18.9141 11.5629 18.8846 11.5629H17.5568C17.5273 11.5629 17.4978 11.5703 17.4683 11.5851C17.4388 11.5998 17.413 11.6219 17.3908 11.6515C17.3761 11.6736 17.3687 11.6994 17.3687 11.7289L17.1363 13.5104C17.0773 13.9456 16.9114 14.3587 16.6384 14.7497C16.3729 15.1406 16.0262 15.4467 15.5983 15.668C15.1778 15.8893 14.75 16 14.3148 16C13.8869 16 13.4886 15.8893 13.1197 15.668C12.7509 15.4467 12.4854 15.1406 12.3231 14.7497C12.1534 14.3587 12.0981 13.9456 12.1571 13.5104L13.164 5.74274C13.3042 4.75426 13.6877 3.80267 14.3148 2.88797C14.9565 1.95851 15.7717 1.24666 16.7601 0.75242C17.7486 0.250807 18.7297 0 19.7034 0C20.6845 0 21.6066 0.250807 22.4697 0.75242C23.3327 1.24666 23.9635 1.95851 24.3618 2.88797C24.7528 3.80267 24.8929 4.75426 24.7823 5.74274L23.7753 13.5104C23.7163 13.9456 23.5504 14.3587 23.2774 14.7497C23.0119 15.1406 22.6652 15.4467 22.2373 15.668C21.8168 15.8893 21.389 16 20.9538 16C20.5259 16 20.1276 15.8893 19.7587 15.668C19.3899 15.4467 19.1207 15.1406 18.951 14.7497C18.7887 14.3587 18.7371 13.9456 18.7961 13.5104Z" fill="#5A42EE"/>
<path d="M32.0741 5.80913C32.0962 5.6616 32.0778 5.52144 32.0188 5.38866C31.9598 5.25588 31.8676 5.15629 31.7422 5.0899C31.6241 5.01614 31.495 4.97925 31.3549 4.97925C31.2147 4.97925 31.0709 5.01614 30.9233 5.0899C30.7832 5.15629 30.6688 5.25588 30.5803 5.38866C30.4918 5.52144 30.4365 5.6616 30.4144 5.80913L29.4185 13.5104C29.3595 13.9456 29.1935 14.3587 28.9206 14.7497C28.655 15.1406 28.3083 15.4467 27.8805 15.668C27.46 15.8893 27.0321 16 26.5969 16C26.1691 16 25.7707 15.8893 25.4019 15.668C25.0331 15.4467 24.7675 15.1406 24.6052 14.7497C24.4356 14.3587 24.3802 13.9456 24.4392 13.5104L25.8666 2.48963C25.9256 2.0544 26.0916 1.63762 26.3646 1.23928C26.6449 0.840941 26.9953 0.534809 27.4157 0.320885C27.8362 0.106962 28.2567 0 28.6771 0H32.0077C32.9814 0 33.9035 0.247118 34.774 0.741355C34.9141 0.829876 35.0543 0.925772 35.1944 1.02905C35.3567 0.925772 35.5264 0.829876 35.7034 0.741355C36.6845 0.247118 37.6656 0 38.6467 0C39.6204 0 40.5388 0.250807 41.4019 0.75242C42.265 1.24666 42.8957 1.95851 43.294 2.88797C43.6776 3.80267 43.8141 4.75426 43.7034 5.74274L42.6965 13.5104C42.6375 13.9456 42.4715 14.3587 42.1986 14.7497C41.933 15.1406 41.5863 15.4467 41.1585 15.668C40.738 15.8893 40.3102 16 39.8749 16C39.4471 16 39.0487 15.8893 38.6799 15.668C38.3111 15.4467 38.0418 15.1406 37.8722 14.7497C37.7099 14.3587 37.6582 13.9456 37.7173 13.5104L38.7131 5.80913C38.7352 5.6616 38.7168 5.52144 38.6578 5.38866C38.5988 5.25588 38.5066 5.15629 38.3812 5.0899C38.2631 5.01614 38.134 4.97925 37.9939 4.97925C37.8537 4.97925 37.7099 5.01614 37.5623 5.0899C37.4222 5.15629 37.3078 5.25588 37.2193 5.38866C37.1308 5.52144 37.0755 5.6616 37.0534 5.80913L36.0575 13.5104C35.9985 13.9456 35.8325 14.3587 35.5596 14.7497C35.294 15.1406 34.9473 15.4467 34.5195 15.668C34.099 15.8893 33.6712 16 33.2359 16C32.8081 16 32.4097 15.8893 32.0409 15.668C31.6721 15.4467 31.4028 15.1406 31.2332 14.7497C31.0709 14.3587 31.0192 13.9456 31.0783 13.5104L32.0741 5.80913Z" fill="#5A42EE"/>
<path d="M52.8099 11.0207C53.2304 11.0207 53.6214 11.1277 53.9828 11.3416C54.3517 11.5556 54.6209 11.8617 54.7906 12.26C54.9676 12.6584 55.0303 13.0751 54.9787 13.5104C54.9197 13.9456 54.7537 14.3587 54.4807 14.7497C54.2152 15.1406 53.8685 15.4467 53.4406 15.668C53.0202 15.8893 52.5923 16 52.1571 16H45.4738C45.0755 15.9926 44.6993 15.8857 44.3452 15.6791C43.9764 15.4652 43.7071 15.1591 43.5374 14.7607C43.3604 14.3624 43.3014 13.9456 43.3604 13.5104L44.7878 2.48963C44.8468 2.0544 45.0128 1.63762 45.2857 1.23928C45.566 0.840941 45.9201 0.534809 46.348 0.320885C46.7463 0.114338 47.1483 0.00737667 47.554 0H54.016C54.4512 0 54.8533 0.11065 55.2221 0.33195C55.5909 0.545874 55.8565 0.852006 56.0188 1.25035C56.1884 1.64131 56.2438 2.0544 56.1848 2.48963C56.1257 2.92485 55.9561 3.34163 55.6758 3.73997C55.4028 4.13831 55.0561 4.44444 54.6357 4.65837C54.2152 4.87229 53.7947 4.97925 53.3742 4.97925H49.6121C49.5826 4.97925 49.5531 4.98663 49.5236 5.00138C49.4941 5.01614 49.4683 5.03827 49.4462 5.06777C49.4314 5.0899 49.424 5.11572 49.424 5.14523L49.4019 5.3444C49.3945 5.37391 49.3945 5.40341 49.4019 5.43292C49.4167 5.45505 49.4351 5.47349 49.4572 5.48824C49.4867 5.503 49.5162 5.51037 49.5457 5.51037H51.8694C52.3046 5.51037 52.703 5.62102 53.0644 5.84232C53.4333 6.05625 53.6988 6.36238 53.8611 6.76072C54.0308 7.15168 54.0861 7.56478 54.0271 8C53.9754 8.43522 53.8095 8.85201 53.5292 9.25035C53.2562 9.64869 52.9058 9.95482 52.478 10.1687C52.0575 10.3827 51.637 10.4896 51.2166 10.4896H48.8929C48.8634 10.4896 48.8339 10.497 48.8044 10.5118C48.7823 10.5265 48.7601 10.5486 48.738 10.5781C48.7232 10.6003 48.7122 10.6261 48.7048 10.6556L48.6827 10.8548C48.6753 10.8843 48.6753 10.9138 48.6827 10.9433C48.6974 10.9654 48.7159 10.9839 48.738 10.9986C48.7675 11.0134 48.797 11.0207 48.8265 11.0207H52.8099Z" fill="#5A42EE"/>
<path d="M56.0741 5.82019C56.1995 4.80221 56.5831 3.82849 57.2249 2.89903C57.8666 1.96219 58.6818 1.24666 59.6702 0.75242C60.6661 0.250807 61.6509 0 62.6246 0C63.6057 0 64.5241 0.250807 65.3798 0.75242C66.2428 1.24666 66.8772 1.95851 67.283 2.88797C67.3641 3.07238 67.4342 3.2568 67.4932 3.44122C67.5596 3.61088 67.6002 3.78423 67.6149 3.96127C67.6223 3.96865 67.626 3.97603 67.626 3.9834C67.6555 4.18257 67.6555 4.38912 67.626 4.60304C67.567 5.03827 67.401 5.45136 67.128 5.84232C66.8625 6.23329 66.5195 6.53942 66.099 6.76072C65.6785 6.98202 65.2507 7.09267 64.8155 7.09267C64.3876 7.09267 63.9856 6.98202 63.6094 6.76072C63.2405 6.53942 62.975 6.23329 62.8127 5.84232C62.7611 5.73167 62.7168 5.60258 62.6799 5.45505C62.6725 5.43292 62.6652 5.41079 62.6578 5.38866C62.5988 5.25588 62.5066 5.15629 62.3812 5.0899C62.2558 5.01614 62.123 4.97925 61.9828 4.97925C61.8427 4.97925 61.7025 5.01614 61.5623 5.0899C61.4222 5.15629 61.3042 5.25588 61.2083 5.38866C61.1197 5.52144 61.0681 5.66528 61.0534 5.82019L60.478 10.1909C60.4632 10.3384 60.4817 10.4786 60.5333 10.6113C60.5923 10.7441 60.6845 10.8437 60.8099 10.9101C60.8542 10.9396 60.9021 10.9654 60.9538 10.9876C60.9611 10.8917 60.9685 10.7958 60.9759 10.6999C61.0349 10.2646 61.1972 9.85154 61.4628 9.46058C61.7357 9.06224 62.0824 8.75611 62.5029 8.54219C62.9307 8.32089 63.3586 8.21024 63.7864 8.21024H64.8819C65.3171 8.21024 65.7191 8.32089 66.0879 8.54219C66.4568 8.75611 66.7223 9.06224 66.8846 9.46058C67.0543 9.85154 67.1096 10.2646 67.0506 10.6999L66.6854 13.5104C66.6338 13.9456 66.4678 14.3624 66.1875 14.7607C65.9072 15.1591 65.5568 15.4652 65.1363 15.6791C64.7159 15.893 64.2954 16 63.8749 16C63.4545 16 63.0635 15.893 62.702 15.6791C62.6725 15.6644 62.643 15.6496 62.6135 15.6349C61.9201 15.8783 61.2304 16 60.5444 16C59.5706 16 58.6522 15.7529 57.7892 15.2586C56.9335 14.757 56.3065 14.0378 55.9081 13.101C55.5172 12.1936 55.377 11.2457 55.4877 10.2573L56.0741 5.82019Z" fill="#5A42EE"/>
<path d="M72.2069 10.1909C72.1848 10.3384 72.2032 10.4786 72.2622 10.6113C72.3212 10.7367 72.4097 10.8363 72.5278 10.9101C72.6532 10.9839 72.7859 11.0207 72.9261 11.0207C73.0736 11.0207 73.2175 10.9839 73.3576 10.9101C73.4978 10.8363 73.6121 10.7367 73.7007 10.6113C73.7892 10.4786 73.8445 10.3384 73.8666 10.1909L74.4309 5.80913C74.4531 5.6616 74.4346 5.52144 74.3756 5.38866C74.324 5.25588 74.2355 5.15629 74.1101 5.0899C73.9847 5.01614 73.8519 4.97925 73.7117 4.97925C73.5716 4.97925 73.4314 5.01614 73.2913 5.0899C73.1511 5.15629 73.0331 5.25588 72.9372 5.38866C72.8487 5.52144 72.7933 5.6616 72.7712 5.80913L72.2069 10.1909ZM67.7919 5.82019C67.9247 4.80221 68.312 3.82849 68.9538 2.89903C69.5955 1.96219 70.4107 1.24666 71.3991 0.75242C72.395 0.250807 73.3798 0 74.3535 0C75.3346 0 76.253 0.250807 77.1087 0.75242C77.9717 1.24666 78.6025 1.96219 79.0008 2.89903C79.4065 3.82849 79.543 4.80221 79.4102 5.82019L78.8459 10.2019C78.7131 11.2052 78.3332 12.1678 77.7062 13.0899C77.0792 14.0046 76.2714 14.7201 75.283 15.2365C74.2945 15.7455 73.2913 16 72.2733 16C71.2774 16 70.348 15.7455 69.4849 15.2365C68.6292 14.7201 68.0059 14.0046 67.6149 13.0899C67.2239 12.1678 67.0948 11.2052 67.2276 10.2019L67.7919 5.82019Z" fill="#5A42EE"/>
<path d="M84.489 10.1909C84.4669 10.3384 84.4854 10.4786 84.5444 10.6113C84.6034 10.7367 84.6919 10.8363 84.8099 10.9101C84.9353 10.9839 85.0681 11.0207 85.2083 11.0207C85.3558 11.0207 85.4996 10.9839 85.6398 10.9101C85.78 10.8363 85.8943 10.7367 85.9828 10.6113C86.0713 10.4786 86.1267 10.3384 86.1488 10.1909L86.7131 5.80913C86.7352 5.6616 86.7168 5.52144 86.6578 5.38866C86.6061 5.25588 86.5176 5.15629 86.3922 5.0899C86.2668 5.01614 86.134 4.97925 85.9939 4.97925C85.8537 4.97925 85.7136 5.01614 85.5734 5.0899C85.4333 5.15629 85.3152 5.25588 85.2193 5.38866C85.1308 5.52144 85.0755 5.6616 85.0534 5.80913L84.489 10.1909ZM80.0741 5.82019C80.2069 4.80221 80.5942 3.82849 81.2359 2.89903C81.8777 1.96219 82.6928 1.24666 83.6813 0.75242C84.6771 0.250807 85.6619 0 86.6357 0C87.6168 0 88.5351 0.250807 89.3908 0.75242C90.2539 1.24666 90.8846 1.96219 91.283 2.89903C91.6887 3.82849 91.8251 4.80221 91.6924 5.82019L91.128 10.2019C90.9953 11.2052 90.6154 12.1678 89.9883 13.0899C89.3613 14.0046 88.5536 14.7201 87.5651 15.2365C86.5766 15.7455 85.5734 16 84.5554 16C83.5596 16 82.6301 15.7455 81.7671 15.2365C80.9114 14.7201 80.288 14.0046 79.8971 13.0899C79.5061 12.1678 79.377 11.2052 79.5098 10.2019L80.0741 5.82019Z" fill="#5A42EE"/>
</svg>
